<svg width="25" height="25" viewBox="0 0 25 25" fill="none" xmlns="http://www.w3.org/2000/svg">
<path fill-rule="evenodd" clip-rule="evenodd" d="M6.51042 0C9.07119 0 10.8941 0.672738 11.9792 2.01823V25H11.849C11.5885 23.8281 10.9592 22.8407 9.96094 22.0378C8.96267 21.2348 7.81251 20.8333 6.51042 20.8333C4.03645 20.8333 2.34375 21.7448 1.43229 23.5677H1.10677H0.390625H0V22.9818V5.79427V5.20833V5.14323C0 3.49392 0.607633 2.2244 1.82292 1.33463C3.0382 0.444875 4.60068 0 6.51042 0ZM18.4896 0C20.3993 0 21.9618 0.444875 23.1771 1.33463C24.3924 2.2244 25 3.49392 25 5.14323V5.20833V5.46875V22.4609V23.5677H24.6094H23.8932H23.5677C22.526 21.7448 20.8333 20.8333 18.4896 20.8333C17.1875 20.8333 16.0373 21.2348 15.0391 22.0378C14.0408 22.8407 13.4115 23.8281 13.151 25H13.0208V2.01823C14.1059 0.672738 15.9288 0 18.4896 0Z" fill="#C09440"/>
</svg>
