<svg width="534" height="109" viewBox="0 0 534 109" fill="none" xmlns="http://www.w3.org/2000/svg">
<g filter="url(#filter0_b)">
<path fill-rule="evenodd" clip-rule="evenodd" d="M526.046 10.5981C526.044 10.6008 522.787 10.1605 520.277 13.632C517.67 17.2391 516.69 18.5858 515.97 18.7081C515.25 18.5804 514.27 17.2332 511.663 13.6265C509.192 10.2097 506.001 10.5821 505.901 10.5946C505.909 10.5172 506.281 7.14185 503.019 4.53149C499.59 1.7879 498.31 0.757202 498.194 0C498.078 0.757202 496.797 1.7879 493.369 4.53149C490.069 7.17193 490.487 10.5981 490.487 10.5981C490.485 10.6008 487.229 10.1605 484.719 13.632C482.11 17.2391 481.131 18.5858 480.411 18.7081C479.692 18.5804 478.712 17.2332 476.104 13.6265C473.633 10.2097 470.442 10.5821 470.342 10.5946C470.351 10.5172 470.721 7.14185 467.46 4.53149C464.032 1.7879 462.751 0.757202 462.635 0C462.519 0.757202 461.239 1.7879 457.81 4.53149C454.51 7.17193 454.929 10.5981 454.929 10.5981C454.926 10.6008 451.67 10.1605 449.16 13.632C446.551 17.2391 445.572 18.5858 444.852 18.7081C444.133 18.5804 443.153 17.2332 440.545 13.6265C438.075 10.2101 434.883 10.5821 434.783 10.5946C434.792 10.5172 435.163 7.14185 431.901 4.53149C428.473 1.7879 427.192 0.757202 427.076 0C426.96 0.757202 425.68 1.7879 422.252 4.53149C418.952 7.17193 419.37 10.5981 419.37 10.5981C419.367 10.6008 416.111 10.1605 413.601 13.632C410.993 17.2391 410.013 18.5858 409.293 18.7081C408.574 18.5804 407.594 17.2332 404.986 13.6265C402.516 10.2097 399.324 10.5821 399.224 10.5946C399.233 10.5172 399.604 7.14185 396.342 4.53149C392.913 1.7879 391.633 0.757202 391.517 0C391.401 0.757202 390.121 1.7879 386.693 4.53149C383.393 7.17193 383.811 10.5981 383.811 10.5981C383.809 10.6008 380.552 10.1605 378.042 13.632C375.434 17.2391 374.454 18.5858 373.735 18.7081C373.015 18.5804 372.035 17.2332 369.427 13.6265C366.957 10.2097 363.765 10.5821 363.665 10.5946C363.674 10.5172 364.045 7.14185 360.783 4.53149C357.355 1.7879 356.074 0.757202 355.959 0C355.842 0.757202 354.562 1.7879 351.134 4.53149C347.834 7.17193 348.252 10.5981 348.252 10.5981C348.25 10.6008 344.993 10.1605 342.483 13.632C339.875 17.2391 338.895 18.5858 338.176 18.7081C337.456 18.5804 336.476 17.2332 333.868 13.6265C331.398 10.2097 328.207 10.5821 328.106 10.5946C328.116 10.5172 328.487 7.14185 325.225 4.53149C321.796 1.7879 320.516 0.757202 320.4 0C320.284 0.757202 319.003 1.7879 315.575 4.53149C312.275 7.17193 312.693 10.5981 312.693 10.5981C312.691 10.6008 309.435 10.1605 306.924 13.632C304.317 17.2391 303.337 18.5858 302.617 18.7081C301.897 18.5804 300.917 17.2332 298.31 13.6265C295.839 10.2097 292.648 10.5821 292.548 10.5946C292.557 10.5172 292.928 7.14185 289.666 4.53149C286.237 1.7879 284.957 0.757202 284.841 0C284.725 0.757202 283.444 1.7879 280.016 4.53149C276.716 7.17193 277.134 10.5981 277.134 10.5981C277.132 10.6008 273.876 10.1605 271.366 13.632C268.758 17.2391 267.778 18.5858 267.058 18.7081C266.339 18.5804 265.359 17.2332 262.751 13.6265C260.28 10.2097 257.089 10.5821 256.989 10.5946C256.998 10.5172 257.368 7.14185 254.107 4.53149C250.679 1.7879 249.398 0.757202 249.282 0C249.166 0.757202 247.886 1.7879 244.457 4.53149C241.158 7.17193 241.576 10.5981 241.576 10.5981C241.573 10.6008 238.317 10.1605 235.807 13.632C233.199 17.2391 232.219 18.5858 231.499 18.7081C230.78 18.5804 229.8 17.2332 227.192 13.6265C224.722 10.2097 221.53 10.5821 221.43 10.5946C221.439 10.5172 221.81 7.14185 218.548 4.53149C215.12 1.7879 213.839 0.757202 213.723 0C213.607 0.757202 212.327 1.7879 208.899 4.53149C205.598 7.17193 206.017 10.5981 206.017 10.5981C206.015 10.6008 202.758 10.1605 200.248 13.632C197.64 17.2391 196.661 18.5858 195.941 18.7081C195.221 18.5804 194.241 17.2332 191.633 13.6265C189.163 10.2097 185.971 10.5821 185.872 10.5946C185.88 10.5172 186.251 7.14185 182.989 4.53149C179.561 1.7879 178.281 0.757202 178.165 0C178.048 0.757202 176.768 1.7879 173.34 4.53149C170.04 7.17193 170.458 10.5981 170.458 10.5981C170.456 10.6008 167.199 10.1605 164.689 13.632C162.081 17.2391 161.101 18.5858 160.382 18.7081C159.662 18.5804 158.683 17.2332 156.074 13.6265C153.604 10.2097 150.412 10.5821 150.312 10.5946C150.321 10.5172 150.692 7.14185 147.43 4.53149C144.002 1.7879 142.722 0.757202 142.606 0C142.489 0.757202 141.209 1.7879 137.781 4.53149C134.481 7.17193 134.899 10.5981 134.899 10.5981C134.897 10.6008 131.64 10.1605 129.13 13.632C126.522 17.2391 125.542 18.5858 124.823 18.7081C124.103 18.5804 123.123 17.2332 120.516 13.6265C118.045 10.2097 114.854 10.5821 114.754 10.5946C114.763 10.5172 115.134 7.14185 111.872 4.53149C108.443 1.7879 107.163 0.757202 107.047 0C106.931 0.757202 105.651 1.7879 102.222 4.53149C98.9224 7.17193 99.3406 10.5981 99.3406 10.5981C99.3383 10.6008 96.0816 10.1605 93.5713 13.632C90.9638 17.2391 89.9837 18.5858 89.2643 18.7081C88.5445 18.5804 87.5648 17.2332 84.9569 13.6265C82.4863 10.2097 79.295 10.5821 79.1947 10.5946C79.204 10.5172 79.575 7.14185 76.313 4.53149C72.8843 1.7879 71.6041 0.757202 71.4879 0C71.372 0.757202 70.0918 1.7879 66.6631 4.53149C63.3633 7.17193 63.7815 10.5981 63.7815 10.5981C63.7796 10.6008 60.5229 10.1605 58.0126 13.632C55.4051 17.2391 54.425 18.5858 53.7056 18.7081C52.9858 18.5804 52.0057 17.2332 49.3982 13.6265C46.9276 10.2097 43.7363 10.5821 43.636 10.5946C43.6453 10.5172 44.0159 7.14185 40.754 4.53149C37.3256 1.7879 36.0454 0.757202 35.9292 0C35.8133 0.757202 34.5331 1.7879 31.1044 4.53149C27.8046 7.17193 28.2228 10.5981 28.2228 10.5981C28.2206 10.6008 24.9642 10.1605 22.4539 13.632C19.846 17.2391 18.8663 18.5858 18.1465 18.7081C17.4271 18.5804 16.447 17.2332 13.8395 13.6265C11.3686 10.2097 8.17756 10.5821 8.07729 10.5946C8.08657 10.5172 8.45722 7.14185 5.1949 4.53149C1.76694 1.7879 0.486748 0.757202 0.370502 0C0.254627 0.757202 0 108.966 0 108.966H533.999V0.53684C533.859 0.336795 533.778 0.161365 533.752 0C533.637 0.757202 532.356 1.7879 528.928 4.53149C525.628 7.17193 526.046 10.5981 526.046 10.5981Z" fill="#071D3B" fill-opacity="0.6"/>
</g>
<defs>
<filter id="filter0_b" x="-5.43656" y="-5.43656" width="544.872" height="119.839" filterUnits="userSpaceOnUse" color-interpolation-filters="sRGB">
<feFlood flood-opacity="0" result="BackgroundImageFix"/>
<feGaussianBlur in="BackgroundImage" stdDeviation="2.71828"/>
<feComposite in2="SourceAlpha" operator="in" result="effect1_backgroundBlur"/>
<feBlend mode="normal" in="SourceGraphic" in2="effect1_backgroundBlur" result="shape"/>
</filter>
</defs>
</svg>
