<svg width="21" height="300" viewBox="0 0 21 300" fill="none" xmlns="http://www.w3.org/2000/svg">
<path fill-rule="evenodd" clip-rule="evenodd" d="M9.6154 123.078C9.52787 122.991 9.43632 122.907 9.34131 122.827C8.47413 122.104 7.40714 121.851 6.17029 122.077C3.80772 122.508 2.52538 124.947 2.35782 129.324C2.14304 134.967 4.31962 140.31 7.05071 145.482C9.45935 139.91 11.4983 134.394 11.5064 128.594C11.5087 126.878 11.0077 124.471 9.6154 123.078M10.9985 154.294C9.16511 158.662 6.47951 166.987 9.05628 173.727C9.45935 174.778 10.626 177.244 12.7784 177.429C14.0941 177.542 15.5192 176.635 16.2436 175.223C16.8309 174.078 17.044 172.639 16.9139 170.695C16.5286 164.958 13.9144 159.539 10.9985 154.294M4.46242 180.694C0.0441885 176.276 0.148412 168.704 0.466838 165.254C1.03171 159.129 3.56933 153.381 6.02404 147.825L6.44496 146.869C6.50024 146.744 6.55551 146.618 6.61079 146.493C3.67356 141.028 1.26377 135.363 1.49467 129.292C1.67951 124.455 3.20023 121.741 6.0154 121.227C7.51597 120.953 8.82192 121.268 9.89524 122.165C11.7258 123.697 12.373 126.488 12.3701 128.596C12.3615 134.776 10.1336 140.58 7.57125 146.453C8.35148 147.892 9.16741 149.32 9.97643 150.737C10.288 151.281 10.6 151.828 10.9116 152.376C11.1079 151.952 11.3238 151.494 11.5519 151.009C15.483 142.655 23.6618 125.28 14.1851 117.865C14.0002 117.72 13.9634 117.448 14.1102 117.259C14.2576 117.072 14.5288 117.038 14.7165 117.185C24.7421 125.02 16.3605 142.82 12.3332 151.378C11.9999 152.086 11.6935 152.736 11.435 153.304C14.5242 158.81 17.3647 164.511 17.7753 170.637C17.8645 171.963 17.8818 173.921 17.0118 175.618C16.2684 177.068 14.6475 178.456 12.7035 178.289C10.0657 178.061 8.70964 175.238 8.24956 174.035C5.56338 167.01 8.32212 158.436 10.2062 153.95C10.2839 153.764 10.372 153.563 10.4676 153.347C10.0565 152.617 9.64073 151.889 9.2273 151.164C8.52423 149.936 7.8177 148.698 7.13248 147.452L6.81405 148.173C4.38757 153.668 1.87874 159.349 1.32653 165.333C0.96607 169.251 0.875091 178.718 7.82864 182.021C8.04515 182.122 8.13613 182.38 8.03421 182.595C7.93171 182.811 7.67375 182.903 7.45897 182.8C6.28142 182.242 5.2916 181.523 4.46242 180.694" fill="#C19958"/>
<path fill-rule="evenodd" clip-rule="evenodd" d="M8.18845 182.687L9.53126 186.803L13.6472 185.461L12.3044 181.344L8.18845 182.687ZM8.94853 187.654C8.90131 187.606 8.86504 187.547 8.84373 187.482L7.23318 182.544C7.1589 182.318 7.28327 182.074 7.51014 182L12.4472 180.39C12.556 180.354 12.6746 180.363 12.7771 180.415C12.879 180.467 12.9568 180.557 12.9919 180.666L14.6025 185.604C14.6762 185.83 14.5524 186.074 14.3255 186.148L9.38788 187.759C9.27963 187.794 9.16043 187.785 9.05851 187.733C9.01763 187.712 8.9802 187.685 8.94853 187.654V187.654Z" fill="#C19958"/>
<path fill-rule="evenodd" clip-rule="evenodd" d="M8.70101 114.02L9.72193 118.228L13.9294 117.207L12.9085 112.999L8.70101 114.02ZM9.0989 119.055C9.04304 118.999 9.00274 118.929 8.98431 118.851L7.76013 113.804C7.7037 113.572 7.8465 113.339 8.0774 113.283L13.1244 112.058C13.2356 112.031 13.3536 112.05 13.4509 112.109C13.5494 112.168 13.6196 112.265 13.6461 112.376L14.8703 117.423C14.9267 117.655 14.7839 117.889 14.553 117.945L9.506 119.169C9.39487 119.196 9.27682 119.178 9.17951 119.118C9.14957 119.1 9.12251 119.079 9.0989 119.055V119.055Z" fill="#C19958"/>
<path fill-rule="evenodd" clip-rule="evenodd" d="M10.3264 195.26V278.271C10.3264 278.509 10.1329 278.702 9.89451 278.702C9.65612 278.702 9.46265 278.509 9.46265 278.271V195.26C9.46265 195.022 9.65612 194.828 9.89451 194.828C10.1329 194.828 10.3264 195.022 10.3264 195.26" fill="#C19958"/>
<path fill-rule="evenodd" clip-rule="evenodd" d="M10.3264 282.502V299.393C10.3264 299.631 10.1329 299.825 9.89451 299.825C9.65612 299.825 9.46265 299.631 9.46265 299.393V282.502C9.46265 282.264 9.65612 282.071 9.89451 282.071C10.1329 282.071 10.3264 282.264 10.3264 282.502" fill="#C19958"/>
<path fill-rule="evenodd" clip-rule="evenodd" d="M19.788 288.53C19.788 289.505 19.3786 290.52 18.5736 291.325C16.8398 293.058 14.2936 293.651 12.2373 292.799C10.4736 292.069 9.46191 290.446 9.46191 288.347C9.46191 288.109 9.65539 287.915 9.89378 287.915C10.1322 287.915 10.3256 288.109 10.3256 288.347C10.3256 290.079 11.1427 291.411 12.5679 292.001C14.3057 292.721 16.473 292.204 17.9627 290.715C19.1224 289.555 19.2485 287.862 18.2489 286.861C17.5331 286.143 16.2663 285.921 15.3842 286.794C14.8325 287.338 14.8274 287.871 14.9195 288.221C15.0496 288.716 15.4256 289.059 15.7291 289.141C15.9473 289.2 16.0631 289.115 16.1316 289.047C16.3003 288.878 16.5738 288.878 16.7425 289.047C16.9112 289.216 16.9112 289.489 16.7425 289.658C16.4172 289.983 15.9652 290.1 15.5039 289.975C14.8504 289.798 14.2798 289.182 14.0846 288.441C13.9602 287.974 13.8871 287.059 14.7767 286.18C16.0412 284.929 17.8464 285.233 18.861 286.25C19.4823 286.874 19.788 287.687 19.788 288.53" fill="#C19958"/>
<mask id="mask0" mask-type="alpha" maskUnits="userSpaceOnUse" x="9" y="290" width="10" height="10">
<path fill-rule="evenodd" clip-rule="evenodd" d="M9.4624 290.588H18.7001V299.826H9.4624V290.588Z" fill="white"/>
</mask>
<g mask="url(#mask0)">
<path fill-rule="evenodd" clip-rule="evenodd" d="M18.7001 291.02C18.7001 291.13 18.658 291.241 18.5734 291.324L10.1993 299.699C10.0306 299.868 9.75765 299.868 9.58894 299.699C9.42022 299.53 9.42022 299.257 9.58894 299.089L17.963 290.715C18.1317 290.546 18.4047 290.546 18.5734 290.715C18.658 290.799 18.7001 290.909 18.7001 291.02" fill="#C19958"/>
</g>
<path fill-rule="evenodd" clip-rule="evenodd" d="M10.3259 288.347C10.3259 290.446 9.31414 292.069 7.551 292.799C5.49418 293.651 2.94792 293.059 1.21472 291.325C-0.286433 289.824 -0.411961 287.595 0.927387 286.25C1.9414 285.233 3.74658 284.929 5.01165 286.18C5.90128 287.059 5.82643 287.975 5.70435 288.441C5.50858 289.182 4.93794 289.798 4.28439 289.974C3.82259 290.099 3.37115 289.984 3.04524 289.658C2.87652 289.489 2.87652 289.216 3.04524 289.047C3.21395 288.879 3.48746 288.879 3.65618 289.047C3.7247 289.115 3.84044 289.199 4.05867 289.141C4.3627 289.059 4.73814 288.717 4.86827 288.221C4.96098 287.87 4.95522 287.339 4.40474 286.794C3.52259 285.922 2.25464 286.142 1.5389 286.86C0.54159 287.862 0.666542 289.555 1.82508 290.714C3.31472 292.203 5.48266 292.721 7.2199 292.001C8.64505 291.411 9.46213 290.079 9.46213 288.347C9.46213 288.109 9.6556 287.915 9.89399 287.915C10.1324 287.915 10.3259 288.109 10.3259 288.347" fill="#C19958"/>
<mask id="mask1" mask-type="alpha" maskUnits="userSpaceOnUse" x="1" y="290" width="10" height="10">
<path fill-rule="evenodd" clip-rule="evenodd" d="M1.08838 290.588H10.326V299.826H1.08838V290.588Z" fill="white"/>
</mask>
<g mask="url(#mask1)">
<path fill-rule="evenodd" clip-rule="evenodd" d="M10.326 299.393C10.326 299.504 10.284 299.615 10.1994 299.699C10.0307 299.868 9.75772 299.868 9.589 299.699L1.21491 291.324C1.0462 291.156 1.0462 290.883 1.21491 290.715C1.38363 290.546 1.65657 290.546 1.82528 290.715L10.1994 299.089C10.284 299.173 10.326 299.283 10.326 299.393" fill="#C19958"/>
</g>
<path fill-rule="evenodd" clip-rule="evenodd" d="M15.8669 280.386C15.8669 280.625 15.6735 280.818 15.4351 280.818H12.0061C11.7677 280.818 11.5742 280.625 11.5742 280.386C11.5742 280.148 11.7677 279.955 12.0061 279.955H15.4351C15.6735 279.955 15.8669 280.148 15.8669 280.386" fill="#C19958"/>
<path fill-rule="evenodd" clip-rule="evenodd" d="M8.21031 280.386C8.21031 280.625 8.01683 280.818 7.77844 280.818H4.35349C4.1151 280.818 3.92163 280.625 3.92163 280.386C3.92163 280.148 4.1151 279.955 4.35349 279.955H7.77844C8.01683 279.955 8.21031 280.148 8.21031 280.386" fill="#C19958"/>
<path fill-rule="evenodd" clip-rule="evenodd" d="M8.2104 280.386C8.2104 281.315 8.96587 282.071 9.89466 282.071C10.8206 282.071 11.5743 281.315 11.5743 280.386C11.5743 279.458 10.8206 278.702 9.89466 278.702C8.96587 278.702 8.2104 279.458 8.2104 280.386M12.438 280.386C12.438 281.791 11.2968 282.934 9.89466 282.934C8.48967 282.934 7.34668 281.791 7.34668 280.386C7.34668 278.982 8.48967 277.838 9.89466 277.838C11.2968 277.838 12.438 278.982 12.438 280.386" fill="#C19958"/>
<path fill-rule="evenodd" clip-rule="evenodd" d="M10.3266 21.5555V104.566C10.3266 104.804 10.1331 104.998 9.89475 104.998C9.65636 104.998 9.46289 104.804 9.46289 104.566V21.5555C9.46289 21.3171 9.65636 21.1237 9.89475 21.1237C10.1331 21.1237 10.3266 21.3171 10.3266 21.5555" fill="#C19958"/>
<path fill-rule="evenodd" clip-rule="evenodd" d="M10.3266 0.433083V17.3235C10.3266 17.5619 10.1331 17.7553 9.89475 17.7553C9.65636 17.7553 9.46289 17.5619 9.46289 17.3235V0.433083C9.46289 0.194695 9.65636 0.0012207 9.89475 0.0012207C10.1331 0.0012207 10.3266 0.194695 10.3266 0.433083" fill="#C19958"/>
<path fill-rule="evenodd" clip-rule="evenodd" d="M19.7883 11.2957C19.7883 12.1387 19.4825 12.9518 18.8612 13.5754C17.8466 14.5929 16.042 14.8975 14.7769 13.6468C13.8873 12.767 13.9599 11.8526 14.0848 11.385C14.28 10.6445 14.8506 10.0278 15.5042 9.8516C15.9654 9.72722 16.4174 9.84296 16.7428 10.1683C16.9115 10.337 16.9115 10.6105 16.7428 10.7792C16.5741 10.948 16.3005 10.948 16.1318 10.7792C16.0633 10.7107 15.9476 10.6266 15.7293 10.6854C15.4259 10.7677 15.0499 11.1098 14.9197 11.6055C14.8276 11.9551 14.8328 12.4871 15.3844 13.0324C16.2666 13.9048 17.5339 13.6837 18.2491 12.9656C19.2481 11.9637 19.1232 10.2714 17.9629 9.11225C16.4733 7.62262 14.3059 7.10553 12.5681 7.8253C11.143 8.41494 10.3259 9.7468 10.3259 11.4789C10.3259 11.7178 10.1324 11.9107 9.89402 11.9107C9.65563 11.9107 9.46216 11.7178 9.46216 11.4789C9.46216 9.38001 10.4739 7.75736 12.2376 7.02722C14.2938 6.17559 16.8401 6.76811 18.5739 8.50131C19.3789 9.30573 19.7883 10.3203 19.7883 11.2957" fill="#C19958"/>
<path fill-rule="evenodd" clip-rule="evenodd" d="M18.7001 8.8063C18.7001 8.91686 18.658 9.02741 18.5734 9.11206C18.4047 9.28077 18.1317 9.28077 17.963 9.11206L9.58894 0.737393C9.42022 0.568679 9.42022 0.295742 9.58894 0.127028C9.75765 -0.0422614 10.0306 -0.0422614 10.1993 0.127028L18.5734 8.50112C18.658 8.58519 18.7001 8.69574 18.7001 8.8063" fill="#C19958"/>
<path fill-rule="evenodd" clip-rule="evenodd" d="M10.326 11.479C10.326 11.718 10.1326 11.9109 9.89417 11.9109C9.65579 11.9109 9.46231 11.718 9.46231 11.479C9.46231 9.74697 8.64523 8.41511 7.22009 7.8249C5.48285 7.10513 3.3149 7.62279 1.82527 9.11185C0.666152 10.2715 0.540048 11.9633 1.53909 12.9658C2.25425 13.6833 3.52277 13.9044 4.40492 13.032C4.95598 12.4867 4.96174 11.9547 4.86845 11.6057C4.73832 11.1094 4.36289 10.7673 4.05886 10.6856C3.84062 10.6268 3.72489 10.7109 3.65636 10.7788C3.48765 10.9481 3.21414 10.9481 3.04542 10.7788C2.87671 10.6101 2.87671 10.3372 3.04542 10.1685C3.37133 9.84256 3.82277 9.7274 4.28458 9.85177C4.93813 10.028 5.50876 10.6441 5.70454 11.3852C5.82661 11.8527 5.90147 12.7671 5.01183 13.6464C3.74619 14.8976 1.94101 14.5925 0.927572 13.5756C-0.412351 12.231 -0.286823 10.0021 1.2149 8.50148C2.94811 6.7677 5.49437 6.17576 7.55118 7.0274C9.31433 7.75753 10.326 9.38018 10.326 11.479" fill="#C19958"/>
<path fill-rule="evenodd" clip-rule="evenodd" d="M10.326 0.432211C10.326 0.542767 10.284 0.653324 10.1994 0.737393L1.82528 9.11206C1.65657 9.28077 1.38363 9.28077 1.21491 9.11206C1.0462 8.94277 1.0462 8.66983 1.21491 8.50112L9.589 0.127028C9.75772 -0.0422614 10.0307 -0.0422614 10.1994 0.127028C10.284 0.211098 10.326 0.321654 10.326 0.432211" fill="#C19958"/>
<path fill-rule="evenodd" clip-rule="evenodd" d="M15.8672 19.4395C15.8672 19.6779 15.6737 19.8714 15.4353 19.8714H12.0063C11.7679 19.8714 11.5745 19.6779 11.5745 19.4395C11.5745 19.2011 11.7679 19.0076 12.0063 19.0076H15.4353C15.6737 19.0076 15.8672 19.2011 15.8672 19.4395" fill="#C19958"/>
<path fill-rule="evenodd" clip-rule="evenodd" d="M8.21055 19.4395C8.21055 19.6779 8.01708 19.8714 7.77869 19.8714H4.35374C4.11535 19.8714 3.92188 19.6779 3.92188 19.4395C3.92188 19.2011 4.11535 19.0076 4.35374 19.0076H7.77869C8.01708 19.0076 8.21055 19.2011 8.21055 19.4395" fill="#C19958"/>
<path fill-rule="evenodd" clip-rule="evenodd" d="M8.21065 19.4395C8.21065 20.3677 8.96612 21.1237 9.89491 21.1237C10.8208 21.1237 11.5746 20.3677 11.5746 19.4395C11.5746 18.5107 10.8208 17.7552 9.89491 17.7552C8.96612 17.7552 8.21065 18.5107 8.21065 19.4395M12.4383 19.4395C12.4383 20.8445 11.297 21.9874 9.89491 21.9874C8.48992 21.9874 7.34692 20.8445 7.34692 19.4395C7.34692 18.0345 8.48992 16.8915 9.89491 16.8915C11.297 16.8915 12.4383 18.0345 12.4383 19.4395" fill="#C19958"/>
</svg>
